<!DOCTYPE svg PUBLIC "-//W3C//DTD SVG 1.1//EN" "http://www.w3.org/Graphics/SVG/1.1/DTD/svg11.dtd">

<!-- Uploaded to: SVG Repo, www.svgrepo.com, Transformed by: SVG Repo Mixer Tools -->
<svg fill="#000000" height="800px" width="800px" version="1.1" id="Layer_1" xmlns="http://www.w3.org/2000/svg" xmlns:xlink="http://www.w3.org/1999/xlink" viewBox="-30 -30 360.00 360.00" xml:space="preserve" stroke="#000000" stroke-width="0.00300003" transform="matrix(1, 0, 0, 1, 0, 0)rotate(0)">

<g id="SVGRepo_bgCarrier" stroke-width="0" transform="translate(52.500524999999996,52.500524999999996), scale(0.65)">

<rect x="-30" y="-30" width="360.00" height="360.00" rx="180" fill="#ffffff" strokewidth="0"/>

</g>

<g id="SVGRepo_tracerCarrier" stroke-linecap="round" stroke-linejoin="round" stroke="#CCCCCC" stroke-width="1.2000119999999999"/>

<g id="SVGRepo_iconCarrier"> <g> <g> <path d="M150.005,0C67.164,0,0.001,67.159,0.001,150c0,82.838,67.162,150.003,150.003,150.003S300.002,232.838,300.002,150 C300.002,67.159,232.844,0,150.005,0z M230.091,172.444c-9.921,37.083-43.801,64.477-83.969,64.477 c-47.93,0-86.923-38.99-86.923-86.923s38.99-86.92,86.923-86.92c21.906,0,41.931,8.157,57.228,21.579l-13.637,23.623 c-11-11.487-26.468-18.664-43.594-18.664c-33.294,0-60.38,27.088-60.38,60.38c0,33.294,27.085,60.38,60.38,60.38 c25.363,0,47.113-15.728,56.038-37.937h-20.765l36.168-62.636l36.166,62.641H230.091z"/> </g> </g> </g>

</svg>