<svg width="22" height="17" viewBox="0 0 22 17" fill="none" xmlns="http://www.w3.org/2000/svg">
<path d="M10.7307 0.326355L2.94922 6.04619V10.8006L10.7307 16.5205C10.7307 4.30852 10.7307 10.2938 10.7307 0.326355Z" fill="black"/>
<path d="M0.936996 12.3694H5.03125L5.03125 4.47747L0.936996 4.47747L0.936996 12.3694Z" fill="black"/>
<path d="M15.7113 16.3274C15.3282 16.3274 14.993 16.1102 14.8254 15.7482C14.6099 15.2655 14.8254 14.6863 15.3282 14.4932C16.0944 14.1553 16.7887 13.6968 17.3873 13.0934C17.9859 12.4901 18.4647 11.7902 18.776 11.0179C19.1112 10.2214 19.2788 9.3526 19.2788 8.45963C19.2788 7.56666 19.1112 6.72196 18.776 5.9014C18.4408 5.1291 17.9859 4.4292 17.3873 3.82585C16.7887 3.22249 16.0944 2.7398 15.3282 2.42606C14.8493 2.20885 14.6099 1.65376 14.8254 1.17107C15.0409 0.688384 15.5916 0.447041 16.0704 0.66425C17.076 1.09867 17.9859 1.70202 18.752 2.47432C19.5182 3.24662 20.1407 4.16372 20.5478 5.17737C20.9787 6.21514 21.2182 7.34946 21.2182 8.48377C21.2182 9.61808 21.0027 10.7524 20.5478 11.7902C20.1168 12.8038 19.5182 13.7209 18.752 14.4932C17.9859 15.2655 17.076 15.893 16.0704 16.3033C15.9507 16.3516 15.831 16.3757 15.6873 16.3757L15.7113 16.3274Z" fill="black"/>
<path d="M13.9153 12.4418C13.5562 12.4418 13.2449 12.2246 13.0773 11.8867C12.8858 11.4282 13.0773 10.8972 13.5562 10.7041C13.8435 10.5835 14.1069 10.3904 14.3463 10.1732C14.5618 9.95596 14.7533 9.69048 14.873 9.37673C14.9927 9.06299 15.0646 8.74924 15.0646 8.41136C15.0646 8.07348 14.9927 7.75974 14.873 7.44599C14.7533 7.15638 14.5618 6.8909 14.3463 6.64956C14.1069 6.40822 13.8435 6.23927 13.5562 6.1186C13.1012 5.92553 12.8858 5.39457 13.0773 4.93602C13.2689 4.47747 13.7956 4.26026 14.2505 4.45333C14.7533 4.67054 15.2082 4.98429 15.5913 5.37044C15.9744 5.75659 16.2857 6.21514 16.5012 6.72196C16.7166 7.25292 16.8364 7.808 16.8364 8.38723C16.8364 8.96645 16.7166 9.52154 16.5012 10.0525C16.2857 10.5593 15.9744 11.0179 15.5913 11.404C15.2082 11.7902 14.7533 12.1039 14.2505 12.3211C14.1308 12.3694 14.0111 12.3935 13.8914 12.3935L13.9153 12.4418Z" fill="black"/>
</svg>
